# xmcd
#
# Track frame offsets: 
#        150
#        27170
#        59600
#
# Disc length: 1181 seconds
#
# Revision: 9
# Processed by: cddbd v1.5.2PL0 Copyright (c) Steve Scherf et al.
# Submitted via: ExactAudioCopy v0.99pb4
#
DISCID=21049b03
DTITLE=Launching Site - Train of Thoughts
DYEAR=1996
DGENRE=Techno
TTITLE0=Train of Thoughts
TTITLE1=Jews Harp
TTITLE2=Apache
EXTD=
EXTT0=
EXTT1=
EXTT2=
PLAYORDER=
